<svg width="64" height="64" viewBox="0 0 64 64" fill="none" xmlns="http://www.w3.org/2000/svg">
<rect width="64" height="64" fill="black"/>
<path d="M27.1307 14.1573C27.6408 13.2246 28.9803 13.2246 29.4904 14.1573L34.5953 23.4912C34.7187 23.7168 34.9042 23.9024 35.1298 24.0258L44.4638 29.1307C45.3964 29.6408 45.3964 30.9803 44.4638 31.4904L35.1298 36.5953C34.9042 36.7187 34.7187 36.9042 34.5953 37.1298L29.4904 46.4638C28.9803 47.3964 27.6408 47.3964 27.1307 46.4638L22.0258 37.1298C21.9024 36.9042 21.7168 36.7187 21.4912 36.5953L12.1573 31.4904C11.2246 30.9803 11.2246 29.6408 12.1573 29.1307L21.4912 24.0258C21.7168 23.9024 21.9024 23.7168 22.0258 23.4912L27.1307 14.1573Z" fill="#5BA7FF"/>
<path d="M44.8721 40.6135C45.0171 40.3483 45.3981 40.3483 45.5432 40.6135L46.995 43.2682C47.0301 43.3323 47.0829 43.3851 47.1471 43.4202L49.8017 44.8721C50.067 45.0171 50.067 45.3981 49.8017 45.5432L47.1471 46.995C47.0829 47.0301 47.0301 47.0829 46.995 47.1471L45.5432 49.8017C45.3981 50.067 45.0171 50.067 44.8721 49.8017L43.4202 47.1471C43.3851 47.0829 43.3323 47.0301 43.2682 46.995L40.6135 45.5432C40.3483 45.3981 40.3483 45.0171 40.6135 44.8721L43.2682 43.4202C43.3323 43.3851 43.3851 43.3323 43.4202 43.2682L44.8721 40.6135Z" fill="white"/>
</svg>
