<svg width="64" height="64" viewBox="0 0 64 64" fill="none" xmlns="http://www.w3.org/2000/svg">
<rect width="64" height="64" fill="black"/>
<path d="M32.5128 51.2957C41.9306 51.2957 49.5652 43.6611 49.5652 34.2433C49.5652 24.8255 41.9306 17.1909 32.5128 17.1909C23.0951 17.1909 15.4604 24.8255 15.4604 34.2433C15.4604 43.6611 23.0951 51.2957 32.5128 51.2957Z" stroke="white" stroke-miterlimit="10"/>
<path d="M32.5128 25.3499C37.0277 25.3499 40.6877 21.6898 40.6877 17.1749C40.6877 12.66 37.0277 9 32.5128 9C27.9979 9 24.3379 12.66 24.3379 17.1749C24.3379 21.6898 27.9979 25.3499 32.5128 25.3499Z" fill="#2E3A4A"/>
<path d="M15.4606 39.7039C18.4764 39.7039 20.9212 37.2591 20.9212 34.2433C20.9212 31.2275 18.4764 28.7827 15.4606 28.7827C12.4448 28.7827 10 31.2275 10 34.2433C10 37.2591 12.4448 39.7039 15.4606 39.7039Z" fill="#5BA7FF"/>
<path d="M49.4215 39.6559C52.4373 39.6559 54.8821 37.2111 54.8821 34.1953C54.8821 31.1795 52.4373 28.7347 49.4215 28.7347C46.4057 28.7347 43.9609 31.1795 43.9609 34.1953C43.9609 37.2111 46.4057 39.6559 49.4215 39.6559Z" fill="#5BA7FF"/>
<path d="M32.5129 55C34.5587 55 36.2171 53.3415 36.2171 51.2957C36.2171 49.2499 34.5587 47.5914 32.5129 47.5914C30.4671 47.5914 28.8086 49.2499 28.8086 51.2957C28.8086 53.3415 30.4671 55 32.5129 55Z" fill="white"/>
</svg>
