<svg width="64" height="64" viewBox="0 0 64 64" fill="none" xmlns="http://www.w3.org/2000/svg">
<rect width="64" height="64" fill="black"/>
<path d="M60.3937 24.1618C60.3937 15.7998 53.6123 9 45.2319 9C36.8516 9 30.0518 15.7998 30.0518 24.1618C30.0518 32.5238 36.8516 39.3236 45.2136 39.3236C47.6762 39.3236 49.9918 38.7355 52.0318 37.688L57.8024 38.809C58.023 38.8458 58.2251 38.662 58.17 38.4415L57.2327 33.3508C59.1808 30.7962 60.357 27.6168 60.357 24.1618H60.3937Z" fill="#2E3A4A"/>
<path d="M7.02477 49.652C6.73072 49.652 6.43667 49.5969 6.14263 49.505C4.30483 48.8801 3 47.1342 3 45.0943V24.364C3 22.3056 4.67239 20.6332 6.73072 20.6332H43.119C45.1774 20.6332 46.8498 22.3056 46.8498 24.364V46.0315C46.8498 48.0899 45.1774 49.7623 43.119 49.7623H16.9856L9.46903 55V49.6704H7.04315L7.02477 49.652Z" stroke="white" stroke-miterlimit="10"/>
<path d="M11.5271 32.1378C13.7296 32.1378 15.5151 30.3523 15.5151 28.1498C15.5151 25.9473 13.7296 24.1618 11.5271 24.1618C9.32456 24.1618 7.53906 25.9473 7.53906 28.1498C7.53906 30.3523 9.32456 32.1378 11.5271 32.1378Z" fill="#5BA7FF"/>
<path d="M7.53906 38.809H30.7871" stroke="white" stroke-miterlimit="10"/>
</svg>
