<svg width="64" height="64" viewBox="0 0 64 64" fill="none" xmlns="http://www.w3.org/2000/svg">
<g clip-path="url(#clip0_233_922)">
<rect width="64" height="64" fill="black"/>
<path d="M15.6245 53.0729V25.7491C15.6245 17.0858 22.7103 10 31.3736 10C40.037 10 47.1228 17.0858 47.1228 25.7491V53.0675H15.6245V53.0729Z" fill="white"/>
<path d="M15.6626 24.6649C16.221 16.5057 23.0736 10 31.3738 10C39.495 10 46.2338 16.2292 47.0416 24.1444" fill="#2E3A4A"/>
<path d="M48.5811 24.7353H14.1661C6.34238 24.7353 0 31.0777 0 38.9014V38.9068C0 46.7305 6.34238 53.0729 14.1661 53.0729H48.5811C56.4048 53.0729 62.7472 46.7305 62.7472 38.9068V38.9014C62.7472 31.0777 56.4048 24.7353 48.5811 24.7353Z" fill="black" stroke="white" stroke-miterlimit="10"/>
<path d="M47.9629 54C56.3064 54 63.0723 47.2178 63.0723 38.8472C63.0723 30.4766 56.3064 23.6944 47.9629 23.6944C39.6194 23.6944 32.8535 30.4766 32.8535 38.8472C32.8535 47.2178 39.6194 54 47.9629 54Z" fill="#5BA7FF"/>
<path d="M43.5878 29.3002C46.6346 29.3002 49.1068 26.8226 49.1068 23.7649C49.1068 20.7072 46.6346 18.2297 43.5878 18.2297C40.541 18.2297 38.0688 20.7072 38.0688 23.7649C38.0688 26.8226 40.541 29.3002 43.5878 29.3002Z" fill="white"/>
</g>
<defs>
<clipPath id="clip0_233_922">
<rect width="64" height="64" fill="white"/>
</clipPath>
</defs>
</svg>
