<svg width="64" height="64" viewBox="0 0 64 64" fill="none" xmlns="http://www.w3.org/2000/svg">
<rect width="64" height="64" fill="black"/>
<path d="M56.6543 9H6.3457C5.60249 9 5 9.74472 5 10.6634V20.3366C5 21.2553 5.60249 22 6.3457 22H56.6543C57.3975 22 58 21.2553 58 20.3366V10.6634C58 9.74472 57.3975 9 56.6543 9Z" stroke="white" stroke-miterlimit="10"/>
<path d="M12.1448 17.1062C13.1653 17.1062 13.9926 16.2788 13.9926 15.2583C13.9926 14.2377 13.1653 13.4104 12.1448 13.4104C11.1242 13.4104 10.2969 14.2377 10.2969 15.2583C10.2969 16.2788 11.1242 17.1062 12.1448 17.1062Z" fill="white"/>
<path d="M56.9234 26H6.07656C5.48199 26 5 26.5499 5 27.2283V36.7717C5 37.4501 5.48199 38 6.07656 38H56.9234C57.518 38 58 37.4501 58 36.7717V27.2283C58 26.5499 57.518 26 56.9234 26Z" fill="#2E3A4A"/>
<path d="M12.1448 33.8603C13.1653 33.8603 13.9926 33.033 13.9926 32.0124C13.9926 30.9919 13.1653 30.1646 12.1448 30.1646C11.1242 30.1646 10.2969 30.9919 10.2969 32.0124C10.2969 33.033 11.1242 33.8603 12.1448 33.8603Z" fill="white"/>
<path d="M56.9234 42H6.07656C5.48199 42 5 42.5958 5 43.3307V53.6693C5 54.4042 5.48199 55 6.07656 55H56.9234C57.518 55 58 54.4042 58 53.6693V43.3307C58 42.5958 57.518 42 56.9234 42Z" fill="#5BA7FF"/>
<path d="M12.1448 50.5896C13.1653 50.5896 13.9926 49.7622 13.9926 48.7417C13.9926 47.7211 13.1653 46.8938 12.1448 46.8938C11.1242 46.8938 10.2969 47.7211 10.2969 48.7417C10.2969 49.7622 11.1242 50.5896 12.1448 50.5896Z" fill="white"/>
</svg>
