<svg width="64" height="64" viewBox="0 0 64 64" fill="none" xmlns="http://www.w3.org/2000/svg">
<rect width="64" height="64" fill="black"/>
<path d="M33.759 41.81L39.67 25.365H41.372L47.283 41.81H45.995L44.178 36.773H36.772L34.978 41.81H33.759ZM40.475 26.423L37.14 35.738H43.81L40.475 26.423ZM53.1318 41.994C50.7628 41.994 49.0608 40.844 49.0608 38.567C49.0608 35.784 51.7288 34.933 54.6958 34.933H57.2028V33.852C57.2028 31.598 56.2828 30.632 54.1668 30.632C52.3498 30.632 51.0618 31.414 50.7858 33.185H49.5898C49.8658 30.655 51.9358 29.597 54.2128 29.597C56.7198 29.597 58.4218 30.793 58.4218 33.852V41.81H57.2028V39.97C56.4438 41.143 55.1558 41.994 53.1318 41.994ZM53.2238 41.005C55.4318 41.005 57.2028 39.717 57.2028 37.923V35.876H54.7418C52.2348 35.876 50.2798 36.405 50.2798 38.567C50.2798 40.108 51.2458 41.005 53.2238 41.005Z" fill="white"/>
<path d="M27.8799 14H6.42994C5.19282 14 4.18994 15.0029 4.18994 16.24V38.16C4.18994 39.3971 5.19282 40.4 6.42994 40.4H27.8799C29.1171 40.4 30.1199 39.3971 30.1199 38.16V16.24C30.1199 15.0029 29.1171 14 27.8799 14Z" stroke="white" stroke-miterlimit="10"/>
<path d="M23.2242 27.1895L17.1572 21.1226L11.0903 27.1895L17.1572 33.2565L23.2242 27.1895Z" fill="#5BA7FF"/>
<path d="M58.3402 14H54.1902C53.8974 14 53.6602 14.2373 53.6602 14.53V18.68C53.6602 18.9727 53.8974 19.21 54.1902 19.21H58.3402C58.6329 19.21 58.8702 18.9727 58.8702 18.68V14.53C58.8702 14.2373 58.6329 14 58.3402 14Z" fill="#5BA7FF"/>
<path d="M57.28 16.22L56.27 17.24L55.25 16.22" stroke="black" stroke-width="0.5" stroke-miterlimit="10"/>
<path d="M29.5298 49.78L24.9898 36.68C24.9198 36.46 25.1298 36.26 25.3398 36.36L37.4898 41.78C37.7198 41.88 37.6798 42.23 37.4298 42.28L31.4298 43.37C31.3198 43.39 31.2398 43.47 31.2198 43.58L30.0298 49.75C29.9798 50.01 29.6098 50.04 29.5298 49.79V49.78Z" fill="white"/>
</svg>
