<svg width="64" height="64" viewBox="0 0 64 64" fill="none" xmlns="http://www.w3.org/2000/svg">
<rect width="64" height="64" fill="black"/>
<path d="M27.2235 9.13037H4V46.7871H27.2235V9.13037Z" fill="#2E3A4A"/>
<path d="M58.7378 9.5V46.5293H36.5142V9.5H58.7378Z" stroke="white" stroke-miterlimit="10"/>
<path d="M11.0957 32.6332V55H52.4026V47.0478" stroke="white" stroke-miterlimit="10"/>
<path d="M51.955 21.1052V36.3951H27.2603" stroke="white" stroke-miterlimit="10"/>
<path d="M11.1511 35.2032C12.5705 35.2032 13.7211 34.0526 13.7211 32.6332C13.7211 31.2138 12.5705 30.0631 11.1511 30.0631C9.7317 30.0631 8.58105 31.2138 8.58105 32.6332C8.58105 34.0526 9.7317 35.2032 11.1511 35.2032Z" fill="white"/>
<path d="M51.9548 23.5635C53.6622 23.5635 55.0463 22.1794 55.0463 20.472C55.0463 18.7646 53.6622 17.3805 51.9548 17.3805C50.2474 17.3805 48.8633 18.7646 48.8633 20.472C48.8633 22.1794 50.2474 23.5635 51.9548 23.5635Z" fill="#5BA7FF"/>
</svg>
