<svg width="64" height="64" viewBox="0 0 64 64" fill="none" xmlns="http://www.w3.org/2000/svg">
<rect width="64" height="64" fill="black"/>
<path d="M31.6874 31.5788C31.6874 29.0987 29.6768 27.0881 27.1967 27.0881C24.7166 27.0881 22.7061 29.0987 22.7061 31.5788C22.7061 34.0589 24.7166 36.0695 27.1967 36.0695C29.6768 36.0695 31.6874 34.0589 31.6874 31.5788Z" fill="#2E3A4A"/>
<path d="M17.3452 49.0305C17.3452 43.5987 21.7552 39.1887 27.187 39.1887C32.6188 39.1887 37.0288 43.5987 37.0288 49.0305" fill="#2E3A4A"/>
<path d="M51.1194 14.8799H3.2728C2.56985 14.8799 2 15.4497 2 16.1527V53.7273C2 54.4302 2.56985 55.0001 3.2728 55.0001H51.1194C51.8224 55.0001 52.3922 54.4302 52.3922 53.7273V16.1527C52.3922 15.4497 51.8224 14.8799 51.1194 14.8799Z" stroke="white" stroke-miterlimit="10"/>
<path d="M52.3922 20.5807H2" stroke="white" stroke-miterlimit="10"/>
<path d="M50.671 32.1614C57.0669 32.1614 62.2518 26.9766 62.2518 20.5807C62.2518 14.1849 57.0669 9 50.671 9C44.2752 9 39.0903 14.1849 39.0903 20.5807C39.0903 26.9766 44.2752 32.1614 50.671 32.1614Z" fill="black" stroke="#5BA7FF" stroke-miterlimit="10"/>
<path d="M48.287 16.0811L55.135 20.4731L48.269 25.0803L48.287 16.0811Z" fill="#5BA7FF"/>
</svg>
